
<svg xmlns="http://www.w3.org/2000/svg" viewBox="0 0 536.36 582.97" fill="black">
  <g id="Layer_2" data-name="Layer 2">
    <g id="Layer_1-2" data-name="Layer 1">
      <path d="M218.74,446.65l-6.05-7L26.29,224.14,8.61,251.41a53.57,53.57,0,0,0,5.13,65l199,221.23,6.05,6.73,18,20L253.49,583l25.84-47,.29-.53L393.48,328.33l51.21,180.25,91.67-363.9-142.88-72,51.21,107.86v82L393.48,157.87,279.62,381.14l-.29.56V0L237.42,21.12l-3.27,1.63-15.41,7.78-6.05,3L44.47,118.38a53.57,53.57,0,0,0-18.18,80.74l186.4-82.32,6.05-2.68,1.4-.61V448.25Z"/>
    </g>
  </g>
</svg>
